<svg width="17" height="16" viewBox="0 0 17 16" fill="none" xmlns="http://www.w3.org/2000/svg">
<path fill-rule="evenodd" clip-rule="evenodd" d="M15.3333 9.33335C15.5178 9.33468 15.6935 9.41183 15.8193 9.54668C15.9455 9.67886 16.011 9.85761 16 10.04C15.7997 13.3874 13.0267 15.9997 9.67333 16H6.32666C2.97324 15.9997 0.200326 13.3874 -4.91715e-06 10.04C-0.00878807 9.85806 0.0560946 9.68023 0.179995 9.54668C0.304916 9.41018 0.481628 9.33272 0.666662 9.33335H3.07866C3.22565 9.33473 3.3562 9.23967 3.4 9.09935C3.5741 8.54572 4.08631 8.1683 4.66666 8.16601H8.00333C8.58368 8.1683 9.09589 8.54572 9.26999 9.09935C9.31343 9.23849 9.44223 9.33327 9.588 9.33335H13.166C13.3501 9.33335 13.4993 9.18411 13.4993 9.00001V2.00001C13.5001 1.73655 13.3456 1.49736 13.1051 1.38968C12.8647 1.282 12.5834 1.32602 12.3873 1.50201L12.114 1.77535C12.0251 1.86493 11.9943 1.99706 12.0347 2.11668C12.2671 2.80327 12.0907 3.56229 11.5793 4.07601L11.446 4.21268C11.1857 4.47294 10.7637 4.47294 10.5033 4.21268L8.74 2.44868C8.47974 2.18835 8.47974 1.76635 8.74 1.50601L8.87666 1.36935C9.39648 0.872756 10.147 0.701707 10.8307 0.924014C10.9494 0.96174 11.0792 0.930112 11.1673 0.842014L11.476 0.533348C12.0593 -0.00563735 12.9062 -0.148438 13.634 0.169491C14.3617 0.487419 14.8324 1.20583 14.8333 2.00001V9.00001C14.8333 9.18411 14.9826 9.33335 15.1667 9.33335H15.3333ZM7.66666 13.5C7.85076 13.5 8 13.3508 8 13.1667V9.83335C8 9.64925 7.85076 9.50001 7.66666 9.50001H5C4.8159 9.50001 4.66666 9.64925 4.66666 9.83335V13.1667C4.66666 13.3508 4.8159 13.5 5 13.5H7.66666Z" fill="black"/>
<path d="M6 4.05856C6.09626 4.0594 6.19155 4.03939 6.27934 3.99989L7.49 3.44123C7.70663 3.34179 7.85374 3.13434 7.87594 2.89702C7.89813 2.6597 7.79203 2.42856 7.5976 2.29068C7.40318 2.1528 7.14996 2.12912 6.93334 2.22856L5.72067 2.78656C5.43638 2.91774 5.28168 3.22908 5.34883 3.53489C5.41599 3.8407 5.68691 4.05857 6 4.05856Z" fill="black"/>
<path d="M9.41467 7.67273C9.75322 7.81715 10.1448 7.65988 10.2893 7.3214L10.8133 6.09473C10.9485 5.75826 10.7899 5.37548 10.4564 5.23312C10.1229 5.09077 9.73684 5.24106 9.58734 5.5714L9.06667 6.80007C8.92318 7.13716 9.07859 7.52688 9.41467 7.67273Z" fill="black"/>
<path d="M6.99064 6.05074C7.24968 6.31229 7.67168 6.31438 7.9333 6.05541L8.8813 5.11807C9.13584 4.85799 9.13478 4.44183 8.87891 4.18304C8.62304 3.92426 8.20692 3.91849 7.94397 4.17007L6.99597 5.10807C6.73424 5.36693 6.73185 5.78894 6.99064 6.05074Z" fill="black"/>
</svg>
